<?xml version="1.0" encoding="UTF-8"?>
<svg width="24px" height="24px" viewBox="0 0 24 24" version="1.1" xmlns="http://www.w3.org/2000/svg" xmlns:xlink="http://www.w3.org/1999/xlink">
    <!-- Generator: sketchtool 47.1 (45422) - http://www.bohemiancoding.com/sketch -->
    <title>300F7D85-0C2B-4926-94D4-4386B06DD992</title>
    <desc>Created with sketchtool.</desc>
    <defs></defs>
    <g id="Page-1" stroke="none" stroke-width="1" fill="none" fill-rule="evenodd">
        <g id="picture_screen" transform="translate(-1343.000000, -927.000000)" fill-rule="nonzero" fill="#FFFFFF">
            <g id="add" transform="translate(1310.000000, 894.000000)">
                <path d="M55.2857143,43.2857143 L46.7142857,43.2857143 L46.7142857,34.7142857 C46.7142857,33.7662857 45.948,33 45,33 C44.052,33 43.2857143,33.7662857 43.2857143,34.7142857 L43.2857143,43.2857143 L34.7142857,43.2857143 C33.7662857,43.2857143 33,44.052 33,45 C33,45.948 33.7662857,46.7142857 34.7142857,46.7142857 L43.2857143,46.7142857 L43.2857143,55.2857143 C43.2857143,56.2337143 44.052,57 45,57 C45.948,57 46.7142857,56.2337143 46.7142857,55.2857143 L46.7142857,46.7142857 L55.2857143,46.7142857 C56.2337143,46.7142857 57,45.948 57,45 C57,44.052 56.2337143,43.2857143 55.2857143,43.2857143 Z" id="Shape"></path>
            </g>
        </g>
    </g>
</svg>