<?xml version="1.0" encoding="UTF-8"?>
<svg width="20px" height="20px" viewBox="0 0 20 20" version="1.1" xmlns="http://www.w3.org/2000/svg" xmlns:xlink="http://www.w3.org/1999/xlink">
    <!-- Generator: sketchtool 47.1 (45422) - http://www.bohemiancoding.com/sketch -->
    <title>5764604E-50CF-4CFE-B77D-4B3CFD540092</title>
    <desc>Created with sketchtool.</desc>
    <defs></defs>
    <g id="Page-1" stroke="none" stroke-width="1" fill="none" fill-rule="evenodd">
        <g id="picture_edit" transform="translate(-1006.000000, -718.000000)" fill-rule="nonzero" fill="#FFFFFF">
            <g id="Group-3" transform="translate(1006.000000, 718.000000)">
                <path d="M15,4 L20,4 L20,6 L17,6 L17,20 L3,20 L3,6 L0,6 L0,4 L5,4 L5,0 L15,0 L15,4 Z M5,18 L15,18 L15,6 L5,6 L5,18 Z M7,16 L7,8 L9,8 L9,16 L7,16 Z M11,16 L11,8 L13,8 L13,16 L11,16 Z M7,4 L13,4 L13,2 L7,2 L7,4 Z" id="delete-[#1487]"></path>
            </g>
        </g>
    </g>
</svg>