<?xml version="1.0" encoding="UTF-8"?>
<svg width="40px" height="32px" viewBox="0 0 40 32" version="1.1" xmlns="http://www.w3.org/2000/svg" xmlns:xlink="http://www.w3.org/1999/xlink">
    <!-- Generator: sketchtool 47.1 (45422) - http://www.bohemiancoding.com/sketch -->
    <title>80BB6BA7-C533-48E6-8DB6-83ECB303E04E</title>
    <desc>Created with sketchtool.</desc>
    <defs></defs>
    <g id="Page-1" stroke="none" stroke-width="1" fill="none" fill-rule="evenodd">
        <g id="picture_screen" transform="translate(-1256.000000, -289.000000)" fill-rule="nonzero" fill="#FFFFFF">
            <g id="placeholder_picture" transform="translate(1256.000000, 289.000000)">
                <path d="M24.166,9.334 C24.166,7.124 25.956,5.334 28.166,5.334 C30.376,5.334 32.166,7.124 32.166,9.334 C32.166,11.544 30.376,13.334 28.166,13.334 C25.956,13.334 24.166,11.544 24.166,9.334 L24.166,9.334 Z M36,24.172 L27.974,16.148 L27.942,16.178 L27.91,16.148 L25.05,19.008 L15.792,9.752 L15.762,9.784 L15.73,9.752 L4,21.482 L4,4 L36,4 L36,24.172 Z M0,32 L40,32 L40,0 L0,0 L0,32 Z" id="image_picture-[#971]"></path>
            </g>
        </g>
    </g>
</svg>