<?xml version="1.0" encoding="UTF-8"?>
<svg width="19px" height="19px" viewBox="0 0 19 19" version="1.1" xmlns="http://www.w3.org/2000/svg" xmlns:xlink="http://www.w3.org/1999/xlink">
    <!-- Generator: sketchtool 47.1 (45422) - http://www.bohemiancoding.com/sketch -->
    <title>9E38A093-8D01-4818-9213-363F83CABA84</title>
    <desc>Created with sketchtool.</desc>
    <defs></defs>
    <g id="Page-1" stroke="none" stroke-width="1" fill="none" fill-rule="evenodd">
        <g id="picture_edit" transform="translate(-1130.000000, -324.000000)" fill-rule="nonzero" fill="#00A4A7">
            <g id="close" transform="translate(1138.828427, 333.221825) rotate(-45.000000) translate(-1138.828427, -333.221825) translate(1103.328427, 297.721825)">
                <path d="M45.9425685,34.4572872 L37.37114,34.4572872 L37.37114,25.8858586 C37.37114,24.9378586 36.6048542,24.1715729 35.6568542,24.1715729 C34.7088542,24.1715729 33.9425685,24.9378586 33.9425685,25.8858586 L33.9425685,34.4572872 L25.37114,34.4572872 C24.42314,34.4572872 23.6568542,35.2235729 23.6568542,36.1715729 C23.6568542,37.1195729 24.42314,37.8858586 25.37114,37.8858586 L33.9425685,37.8858586 L33.9425685,46.4572872 C33.9425685,47.4052872 34.7088542,48.1715729 35.6568542,48.1715729 C36.6048542,48.1715729 37.37114,47.4052872 37.37114,46.4572872 L37.37114,37.8858586 L45.9425685,37.8858586 C46.8905685,37.8858586 47.6568542,37.1195729 47.6568542,36.1715729 C47.6568542,35.2235729 46.8905685,34.4572872 45.9425685,34.4572872 Z" id="Shape"></path>
            </g>
        </g>
    </g>
</svg>